PathFileType	4	(X/Y/Z)	C:/Users/dbak576/Desktop/Duncan Bakke Modelling Files/H24s1/Static_H24s1.trc	
DataRate	CameraRate	NumFrames	NumMarkers	Units	OrigDataRate	OrigDataStartFrame	OrigNumFrames	
200.00	200.00	4	61	mm	200.00	1	32	
Frame#	Time	LFHD			RFHD			LBHD			RBHD			C7			T10			CLAV			STRN			RBack			LASI			RASI			LPSI			RPSI			RACR1			RUA1			RElbow			RElbowM			RFA1			RWRR			RWRU			RCAR			LACR1			LUA1			LElbow			LElbowM			LFA1			LWRR			LWRU			LCAR			RTH1			RTH3			RTH2			RTH4			RLFC			RMFC			RTB1			RTB2			RTB4			RLMAL			RMMAL			RCAL			RMT1			RMT5			RToe			LTH1			LTH3			LTH2			LTH4			LLFC			LMFC			LTB1			LTB3			LTB2			LTB4			LLMAL			LMMAL			LCAL			LMT1			LMT5			LToe			RTB3			
		X1	Y1	Z1	X2	Y2	Z2	X3	Y3	Z3	X4	Y4	Z4	X5	Y5	Z5	X6	Y6	Z6	X7	Y7	Z7	X8	Y8	Z8	X9	Y9	Z9	X10	Y10	Z10	X11	Y11	Z11	X12	Y12	Z12	X13	Y13	Z13	X14	Y14	Z14	X15	Y15	Z15	X16	Y16	Z16	X17	Y17	Z17	X18	Y18	Z18	X19	Y19	Z19	X20	Y20	Z20	X21	Y21	Z21	X22	Y22	Z22	X23	Y23	Z23	X24	Y24	Z24	X25	Y25	Z25	X26	Y26	Z26	X27	Y27	Z27	X28	Y28	Z28	X29	Y29	Z29	X30	Y30	Z30	X31	Y31	Z31	X32	Y32	Z32	X33	Y33	Z33	X34	Y34	Z34	X35	Y35	Z35	X36	Y36	Z36	X37	Y37	Z37	X38	Y38	Z38	X39	Y39	Z39	X40	Y40	Z40	X41	Y41	Z41	X42	Y42	Z42	X43	Y43	Z43	X44	Y44	Z44	X45	Y45	Z45	X46	Y46	Z46	X47	Y47	Z47	X48	Y48	Z48	X49	Y49	Z49	X50	Y50	Z50	X51	Y51	Z51	X52	Y52	Z52	X53	Y53	Z53	X54	Y54	Z54	X55	Y55	Z55	X56	Y56	Z56	X57	Y57	Z57	X58	Y58	Z58	X59	Y59	Z59	X60	Y60	Z60	X61	Y61	Z61	

1	0.000	-63.37444	-242.31973	1701.67224	8.59626	-233.34480	1704.86853	-84.66670	-426.10764	1670.37512	56.50419	-409.46429	1681.60205	-1.33611	-454.76620	1527.70947	3.99232	-523.95831	1289.25903	-14.86005	-308.82770	1462.35681	-19.79792	-241.72177	1300.02063	119.52202	-517.65039	1434.94873	-143.77571	-307.42780	1051.04138	140.36552	-291.17368	1057.32068	-23.09204	-520.05969	1041.35754	55.55634	-511.69348	1044.16663	124.17918	-389.04419	1520.99573	299.81076	-404.99310	1472.74475	439.25839	-383.13168	1411.33521	412.05887	-328.40424	1365.65515	582.39862	-334.31570	1401.46851	680.88080	-234.15082	1473.84265	702.53699	-241.70244	1400.82104	740.13202	-256.00125	1451.53125	-138.31262	-418.49600	1527.31543	-306.06979	-470.18124	1473.93494	-447.01733	-465.00720	1415.68335	-426.20697	-413.18204	1367.89905	-593.94733	-439.10870	1398.08008	-714.39880	-358.17395	1472.65015	-717.84186	-364.09665	1394.37695	-780.20758	-369.73126	1439.76855	212.73251	-352.83801	809.33069	207.27084	-379.95297	620.01910	172.56258	-301.88907	704.14673	213.98262	-362.58447	714.37335	211.73721	-395.54559	507.99268	78.95943	-399.82608	507.85916	150.98433	-363.61124	372.35071	223.61159	-399.45401	285.35645	155.49298	-380.16449	281.14294	222.83847	-451.27411	75.18937	136.89854	-428.35175	91.06486	187.36081	-509.26459	34.93726	156.74617	-316.25491	39.08866	244.20245	-349.78528	24.27869	170.52510	-255.90887	27.12967	-199.58670	-385.50385	804.88373	-189.72772	-425.05615	622.79297	-167.45825	-341.69080	702.57214	-196.53561	-406.33032	713.16095	-189.74022	-454.28699	523.98773	-56.29167	-451.13953	515.23260	-125.66867	-424.04041	382.64264	-147.36386	-436.65253	198.35880	-205.94904	-449.49402	304.20047	-136.16039	-427.40628	295.36655	-200.99736	-484.93619	73.73208	-117.44984	-462.28308	87.83414	-165.90871	-542.12970	26.03723	-142.27042	-340.43591	39.24214	-229.24480	-378.35162	20.77758	-154.43504	-283.20132	25.94975			 
2	0.005	-63.33635	-242.26694	1701.67456	8.53995	-233.30183	1704.83203	-84.65388	-426.10571	1670.36267	56.53910	-409.45123	1681.60559	-1.32614	-454.69379	1527.70581	4.02970	-523.84808	1289.27319	-14.88629	-308.77505	1462.35791	-19.82745	-241.66911	1300.00024	119.39040	-517.56134	1434.96338	-143.78297	-307.42465	1051.04028	140.32513	-291.14044	1057.27649	-23.12347	-520.02332	1041.30786	55.59393	-511.67569	1044.16479	124.18305	-389.00235	1520.99402	299.79645	-404.93655	1472.75964	439.27014	-383.04550	1411.33667	412.29526	-329.06943	1365.64404	582.38544	-334.21710	1401.47180	680.85657	-234.08214	1473.81702	702.55469	-241.66374	1400.84180	740.11926	-255.98199	1451.50830	-138.32729	-418.45053	1527.31189	-306.09409	-470.10977	1473.91455	-447.01819	-465.00388	1415.67590	-426.20618	-413.18347	1367.95837	-593.93414	-439.10419	1398.07190	-714.41650	-358.18484	1472.67224	-717.89490	-364.06873	1394.40015	-780.22870	-369.80151	1439.81067	212.73251	-352.83801	809.33069	207.26599	-379.94623	620.01062	172.55144	-301.82990	704.13153	213.98143	-362.58289	714.36932	211.73721	-395.54559	507.99268	78.82381	-400.14658	507.66577	151.00133	-363.60858	372.31458	223.61604	-399.46988	285.37149	155.49161	-380.11316	281.18610	222.84573	-451.28238	75.18762	136.76799	-428.42145	91.20143	187.24313	-509.27396	34.90412	156.78076	-316.26062	39.06257	209.28793	-353.82391	0.27540	170.52844	-255.88640	27.12957	-199.59901	-385.47672	804.89935	-189.69470	-425.05017	622.77728	-167.47324	-341.68823	702.56860	-196.53928	-406.30563	713.19263	-189.81807	-454.28717	524.01935	-56.29167	-451.13953	515.23260	-125.73026	-423.96317	382.64383	-147.13417	-436.47406	198.30403	-205.98296	-449.51807	304.23315	-136.16039	-427.40628	295.36655	-201.03346	-484.91016	73.76073	-117.21006	-461.96048	87.64136	-165.90031	-542.27295	25.89899	-142.02937	-340.69501	39.19056	-229.24634	-378.36832	20.79002	-154.46820	-283.18866	25.98748	162.77127	-399.08505	190.53831 
3	0.010	-63.28042	-242.26279	1701.65747	8.49484	-233.25513	1704.82959	-84.66241	-426.03177	1670.34265	56.51124	-409.39661	1681.60876	-1.31506	-454.65366	1527.71008	4.02035	-523.80334	1289.25549	-14.95395	-308.72415	1462.37708	-19.80431	-241.65031	1299.98450	119.26002	-517.51807	1435.10083	-143.80548	-307.34973	1051.03186	140.30872	-291.13016	1057.26611	-23.11859	-519.97003	1041.31274	55.57245	-511.66406	1044.17798	124.20078	-388.94452	1520.98169	299.67975	-404.93185	1472.86621	439.21927	-382.96860	1411.33301	412.41510	-329.30173	1365.55933	582.38312	-334.11694	1401.47583	680.84698	-234.11157	1473.84631	702.53839	-241.61719	1400.82886	740.11383	-255.94572	1451.54065	-138.34416	-418.38571	1527.32385	-306.08511	-470.09717	1473.90930	-447.02731	-465.00592	1415.69189	-426.20691	-413.18213	1367.99109	-593.95099	-439.10907	1398.09583	-714.42993	-358.18515	1472.68970	-717.92615	-364.06540	1394.39612	-780.26233	-369.81110	1439.82593	212.72000	-352.79462	809.32898	207.69815	-379.87659	620.22510	172.53522	-301.79691	704.11029	213.98088	-362.58228	714.36853	211.71281	-395.54736	507.98834	78.90387	-400.17276	507.73358	151.00111	-363.61218	372.33051	223.60841	-399.46063	285.37357	155.48021	-380.09805	281.15591	222.63522	-451.28592	75.02858	136.80614	-428.32059	91.19682	187.20641	-509.26654	34.90055	156.77238	-316.26184	39.08781	244.10309	-349.70285	24.24697	170.49532	-255.88641	27.12845	-199.60178	-385.47263	804.90192	-189.69196	-425.04736	622.77832	-167.46298	-341.64688	702.56702	-196.55769	-406.30801	713.17609	-189.81662	-454.24237	523.85242	-56.30750	-451.13843	515.26801	-125.72269	-423.91992	382.65076	-147.26982	-436.59357	198.31087	-206.06386	-449.54144	304.19077	-135.79478	-427.64328	295.05777	-201.02296	-484.90506	73.73856	-117.11755	-461.77283	87.54947	-165.90887	-542.18842	25.94587	-142.18628	-340.64130	39.21725	-229.27617	-378.38663	20.77681	-154.46227	-283.16791	25.97658	163.14745	-399.55521	190.01028 
4	0.015	-63.25534	-242.22144	1701.65710	8.54925	-233.19720	1704.84265	-84.65195	-425.97647	1670.33923	56.52275	-409.30408	1681.61328	-1.31782	-454.59619	1527.70459	3.98144	-523.75745	1289.25366	-14.91287	-308.69675	1462.38562	-19.82617	-241.62053	1299.97632	119.22654	-517.44946	1435.13879	-143.81155	-307.32358	1051.03186	140.32590	-291.35507	1057.41809	-23.15316	-519.92450	1041.33630	55.54156	-511.63602	1044.18250	124.17677	-388.92468	1520.98401	299.54651	-404.89999	1472.90161	439.21881	-382.89893	1411.35632	412.36609	-329.18152	1365.51172	582.40784	-333.99173	1401.46240	680.85602	-234.08504	1473.87781	702.50903	-241.55504	1400.79077	740.10211	-255.90298	1451.53992	-138.35188	-418.37509	1527.29736	-306.07718	-470.07196	1473.91003	-447.03220	-465.00717	1415.69678	-426.20737	-413.17850	1367.96948	-593.99097	-439.10855	1398.11267	-714.42792	-358.18924	1472.69604	-717.92975	-364.08066	1394.40747	-780.23932	-369.78848	1439.82385	212.70731	-352.76645	809.32623	207.64502	-379.93396	620.20844	172.55190	-301.80325	704.11731	213.99208	-362.57047	714.37549	211.68779	-395.52695	508.00314	78.98125	-400.03217	507.83395	150.98117	-363.58774	372.33060	223.58423	-399.39813	285.37109	155.48640	-380.11203	281.13409	222.72020	-451.22363	75.10394	136.86922	-428.31528	91.07458	187.29005	-509.26996	34.92234	156.74957	-316.28625	39.07460	244.20824	-349.79504	24.26057	170.50249	-255.88315	27.13159	-199.58533	-385.42679	804.88452	-189.71010	-424.98309	622.77930	-167.45906	-341.57074	702.55829	-196.57143	-406.26035	713.17584	-189.78444	-454.23209	523.78040	-56.31068	-451.07175	515.30646	-125.70458	-423.92307	382.64890	-147.37950	-436.65094	198.35251	-206.06197	-449.52603	304.23953	-135.48407	-427.86639	294.82138	-201.01427	-484.89639	73.71257	-117.37489	-462.02042	87.73696	-165.89407	-542.10303	26.00425	-142.33441	-340.55441	39.26032	-229.25313	-378.37735	20.75622	-154.49477	-283.29373	25.97776	163.29176	-399.64777	189.84990 
